<svg width="10" height="14" viewBox="0 0 10 14" fill="none" xmlns="http://www.w3.org/2000/svg">
<path fill-rule="evenodd" clip-rule="evenodd" d="M4.36765 7.11563C4.18954 6.89611 3.83286 6.989 3.78867 7.26641C3.76334 7.42543 3.67886 7.56925 3.55175 7.66976L3.51393 7.69966C3.33887 7.83807 3.31828 8.09383 3.46892 8.25871L3.64082 8.44687C4.72216 9.49883 6.51974 9.5607 7.81234 8.53867C9.10494 7.51665 9.43634 5.77143 8.63259 4.49998L5.70022 0.885792C4.61803 -0.165495 2.8139 -0.2222 1.51337 0.806103C0.212838 1.83441 -0.125104 3.5848 0.677794 4.85692L0.883994 5.11106C0.964771 5.21062 1.12662 5.16731 1.14494 5.04124L1.15255 4.98886C1.20607 4.62056 1.39927 4.28646 1.69306 4.05416C1.74588 4.01241 1.75836 3.93865 1.72883 3.87835C1.4177 3.243 1.66217 2.38352 2.35119 1.83873C3.07816 1.26393 4.05005 1.23707 4.59946 1.75614L7.53182 5.37033C7.92551 6.01253 7.69705 6.93476 6.97452 7.50605C6.252 8.07733 5.29045 8.09602 4.74158 7.57651L4.36765 7.11563ZM4.9389 6.28728L5.16368 6.53332C5.27936 6.6759 5.48989 6.69917 5.63391 6.58529L6.10249 6.21479C6.31231 6.04889 6.33699 5.74237 6.15644 5.54475L6.03967 5.41693C4.95832 4.36497 3.16074 4.3031 1.86814 5.32512C0.575544 6.34715 0.244142 8.09237 1.04789 9.36382L3.98026 12.978C5.06245 14.0293 6.86658 14.086 8.16711 13.0577C9.46764 12.0294 9.80559 10.279 9.00269 9.00688L8.79649 8.75274C8.71571 8.65318 8.55386 8.69649 8.53554 8.82256L8.52793 8.87494C8.47441 9.24324 8.28121 9.57734 7.98742 9.80963C7.93461 9.85139 7.92212 9.92515 7.95165 9.98545C8.26278 10.6208 8.01831 11.4803 7.32929 12.0251C6.60232 12.5999 5.63043 12.6267 5.08103 12.1077L2.14866 8.49346C1.75498 7.85126 1.98343 6.92903 2.70596 6.35775C3.42849 5.78646 4.39004 5.76778 4.9389 6.28728Z" fill="#FFD600"/>
</svg>
