<svg width="51" height="65" viewBox="0 0 51 65" fill="none" xmlns="http://www.w3.org/2000/svg">
<path d="M27.6328 30L33.3164 13.0898H29.4609L25.5938 26.3555H25.5117L21.6445 13.0898H17.6836L23.3672 30H27.6328ZM32.8477 59V42.0898H29.3086V48.957H21.6914V42.0898H18.1523V59H21.6914V51.875H29.3086V59H32.8477Z" fill="black"/>
<path d="M46.6035 35.9971C42.7012 36.3662 40.8291 38.291 40.8291 42.1406V49.9453C40.8291 54.4014 39.168 56.1416 35.4766 56.1416H34.6064V59.0156H35.7666C41.5146 59.0156 44.1514 56.2734 44.1514 50.1826V43.4854C44.1514 39.2402 45.6016 37.79 49.8994 37.79V33.6504C45.6279 33.6504 44.1514 32.2002 44.1514 27.9023V21.5742C44.1514 15.6152 41.5674 12.9521 35.7666 12.9521H34.6064V15.8262H35.4766C39.2471 15.8262 40.8291 17.4873 40.8291 21.9434V29.2998C40.8291 33.123 42.6484 35.0215 46.6035 35.417V35.9971Z" fill="black"/>
<path d="M3.90234 35.9971V35.417C7.83105 35.0215 9.67676 33.123 9.67676 29.2998V21.9434C9.67676 17.4873 11.2588 15.8262 15.0293 15.8262H15.8994V12.9521H14.7393C8.93848 12.9521 6.35449 15.6152 6.35449 21.5742V27.9023C6.35449 32.2002 4.87793 33.6504 0.606445 33.6504V37.79C4.87793 37.79 6.35449 39.2402 6.35449 43.5117V50.3408C6.35449 56.3262 8.96484 59.0156 14.7393 59.0156H15.8994V56.1416H15.0293C11.3115 56.1416 9.67676 54.4014 9.67676 49.9453V42.1143C9.67676 38.291 7.83105 36.3926 3.90234 35.9971Z" fill="black"/>
</svg>
