<svg width="17" height="24" viewBox="0 0 17 24" fill="none" xmlns="http://www.w3.org/2000/svg">
<path d="M8.97093 11.2295L8.64366 10.8712C7.84453 10.1149 6.44455 10.1421 5.39258 10.9738C4.3406 11.8056 4.00798 13.1483 4.58117 14.0834L8.85059 19.3455C9.65051 20.1012 11.0655 20.0621 12.124 19.2253C13.1272 18.4321 13.4831 17.1807 13.0301 16.2556C12.9871 16.1678 13.0053 16.0605 13.0822 15.9997C13.5099 15.6614 13.7912 15.175 13.8692 14.6388L13.8802 14.5625C13.9069 14.379 14.1426 14.3159 14.2602 14.4609L14.5604 14.8309C15.7294 16.683 15.2373 19.2315 13.3438 20.7287C11.4503 22.2259 8.82355 22.1433 7.24791 20.6127L2.97849 15.3506C1.80826 13.4994 2.29077 10.9584 4.17274 9.47036C6.05472 7.98233 8.67194 8.07242 10.2463 9.60403L10.4164 9.79013C10.6792 10.0779 10.6433 10.5242 10.3378 10.7657L9.65557 11.3051C9.44588 11.4709 9.13936 11.437 8.97093 11.2295Z" fill="black"/>
<path d="M6.96893 12.2969C7.03327 11.893 7.55259 11.7577 7.81191 12.0774L8.35634 12.7484C9.15547 13.5048 10.5555 13.4776 11.6074 12.6458C12.6594 11.814 12.992 10.4713 12.4188 9.53627L8.14941 4.27414C7.34949 3.51839 5.93446 3.55749 4.87601 4.39438C3.87283 5.18757 3.51689 6.43894 3.96988 7.364C4.01288 7.45179 3.9947 7.55918 3.91781 7.61998C3.49005 7.95819 3.20876 8.44462 3.13084 8.98086L3.11976 9.05712C3.09309 9.24068 2.85744 9.30373 2.73983 9.15878L2.43961 8.78875C1.27062 6.93659 1.76265 4.38808 3.65618 2.89091C5.54971 1.39374 8.17645 1.4763 9.75209 3.00694L14.0215 8.26907C15.1917 10.1203 14.7092 12.6612 12.8273 14.1493C10.9453 15.6373 8.32806 15.5472 6.75366 14.0156L6.50339 13.7417C6.28406 13.5016 6.31404 13.1292 6.56893 12.9277L6.62398 12.8841C6.80906 12.7378 6.93205 12.5284 6.96893 12.2969Z" fill="black"/>
</svg>
